<?xml version="1.0" standalone="no"?>
<!DOCTYPE svg PUBLIC "-//W3C//DTD SVG 20010904//EN"
 "http://www.w3.org/TR/2001/REC-SVG-20010904/DTD/svg10.dtd">
<svg version="1.0" xmlns="http://www.w3.org/2000/svg"
 width="512.000000pt" height="512.000000pt" viewBox="0 0 512.000000 512.000000"
 preserveAspectRatio="xMidYMid meet">
<metadata>
Created by potrace 1.14, written by Peter Selinger 2001-2017
</metadata>
<g transform="translate(0.000000,512.000000) scale(0.100000,-0.100000)"
fill="#000000" stroke="none">
<path d="M2498 4395 c-2 -2 -30 -6 -64 -9 -167 -16 -391 -75 -563 -149 -361
-154 -621 -416 -729 -734 -44 -127 -59 -301 -38 -438 11 -74 17 -99 47 -189
98 -298 316 -528 584 -617 116 -38 172 -41 785 -42 664 -2 628 2 696 -73 52
-57 74 -140 70 -269 -2 -96 -6 -117 -30 -167 -46 -96 -129 -167 -251 -215 -65
-26 -67 -26 -170 -48 -240 -50 -477 -35 -685 45 -98 39 -166 80 -287 176 -116
92 -181 124 -259 128 -129 8 -286 -84 -360 -210 -35 -59 -43 -153 -20 -220 44
-128 189 -303 326 -393 188 -123 456 -213 710 -238 136 -14 479 -7 531 11 8 3
28 7 44 10 249 41 529 148 728 279 77 51 95 65 157 121 162 147 271 349 298
551 12 93 3 328 -14 356 -2 4 -6 24 -10 45 -9 57 -52 189 -86 263 -122 267
-356 452 -653 517 -16 4 -292 8 -613 10 l-582 3 -53 24 c-65 30 -119 84 -144
142 -10 25 -20 45 -23 45 -3 0 -7 29 -8 66 -3 69 15 150 50 218 29 56 112 141
178 181 69 42 215 92 293 100 32 4 68 9 80 11 31 7 425 7 467 0 179 -31 238
-58 350 -161 47 -43 99 -84 117 -92 97 -40 270 21 373 133 90 97 109 211 55
319 -59 115 -229 260 -410 350 -151 74 -267 111 -465 146 -56 10 -414 22 -422
14z"/>
</g>
</svg>
