<?xml version="1.0" standalone="no"?>
<!DOCTYPE svg PUBLIC "-//W3C//DTD SVG 20010904//EN"
 "http://www.w3.org/TR/2001/REC-SVG-20010904/DTD/svg10.dtd">
<svg version="1.0" xmlns="http://www.w3.org/2000/svg"
 width="670.000000pt" height="670.000000pt" viewBox="0 0 670.000000 670.000000"
 preserveAspectRatio="xMidYMid meet">
<metadata>
Created by potrace 1.14, written by Peter Selinger 2001-2017
</metadata>
<g transform="translate(0.000000,670.000000) scale(0.100000,-0.100000)"
fill="#000000" stroke="none">
<path d="M2680 4790 c-8 -5 -33 -13 -56 -19 -54 -14 -118 -62 -148 -109 -28
-44 -62 -151 -110 -342 -12 -47 -88 -323 -101 -365 -9 -28 -18 -62 -21 -75 -2
-14 -19 -77 -37 -140 l-33 -115 -74 -12 c-41 -7 -86 -14 -100 -17 -291 -48
-482 -116 -524 -186 -22 -38 -21 -41 15 -78 37 -38 147 -90 223 -107 12 -2 48
-12 81 -21 33 -9 69 -17 80 -19 11 -1 74 -12 140 -23 143 -25 301 -45 465 -58
41 -3 91 -7 110 -9 201 -20 871 -32 1145 -21 129 5 337 17 380 22 22 2 74 6
115 9 41 3 91 7 110 9 33 5 78 10 180 21 25 3 70 10 100 15 30 5 73 12 95 15
73 11 89 15 190 40 55 14 105 27 110 28 110 30 225 106 225 148 0 40 -136 127
-222 143 -14 2 -36 9 -47 16 -12 6 -21 8 -21 6 0 -3 -12 -1 -26 4 -27 11 -253
54 -339 65 -56 7 -64 12 -70 46 -3 13 -16 65 -30 114 -14 50 -28 97 -30 105
-2 8 -42 157 -90 330 -48 173 -90 329 -95 347 -34 138 -159 237 -287 227 -24
-2 -117 -32 -207 -68 -231 -91 -265 -99 -426 -99 -110 0 -223 17 -285 42 -20
8 -55 23 -195 80 -80 32 -150 53 -150 44 0 -3 -6 -1 -12 5 -7 5 -20 6 -28 2z"/>
<path d="M2113 2917 c-17 -5 -44 -23 -60 -39 -23 -24 -28 -38 -28 -81 0 -123
125 -425 214 -515 58 -60 173 -120 327 -171 162 -53 207 -63 340 -75 17 -2 36
-6 42 -10 6 -3 14 -2 17 4 5 8 12 7 23 -2 12 -10 14 -10 8 0 -5 8 1 12 21 12
34 0 117 39 153 72 111 101 208 122 313 68 23 -12 44 -25 47 -29 14 -18 119
-91 145 -101 137 -53 542 40 745 171 85 55 139 136 210 314 29 74 71 220 74
260 4 52 -60 123 -115 127 -13 1 -55 -1 -94 -6 -38 -5 -90 -10 -115 -11 -25
-2 -67 -6 -95 -9 -46 -5 -103 -9 -315 -21 -41 -3 -182 -7 -313 -10 -131 -3
-243 -7 -248 -11 -5 -3 -9 0 -9 6 0 6 -4 9 -9 5 -6 -3 -36 -5 -68 -5 -128 0
-524 9 -613 15 -152 9 -242 15 -290 20 -25 3 -74 8 -110 11 -128 10 -149 12
-157 17 -4 2 -22 -1 -40 -6z m755 -292 c20 -4 53 -9 72 -11 48 -6 118 -42 131
-66 25 -46 -15 -138 -76 -175 -122 -73 -365 -43 -464 60 -35 35 -62 111 -51
142 9 26 44 43 111 53 58 9 218 7 277 -3z m1280 1 c12 -3 32 -8 43 -11 29 -6
59 -34 59 -55 0 -30 -27 -85 -57 -114 -72 -73 -196 -117 -312 -112 -110 4
-182 40 -217 107 -58 112 5 165 216 185 36 4 66 7 68 9 5 4 178 -4 200 -9z"/>
</g>
</svg>
